<svg xmlns="http://www.w3.org/2000/svg" width="306.63" height="306.471">
    <defs>
        <style>
            .cls-1{fill:#e1e6eb}
        </style>
    </defs>
    <g id="ServicesCard-Shapes-N" transform="translate(-1293.829 -678)">
        <path id="Shape" class="cls-1" d="M989.462-1144.488c-26.3-32.124-17.223-76.227 10.9-100.112 10.476-8.9 29.64-18.616 41.289-21.441 40.915-9.894 82.745-24.394 129.245-65.075 38.634-33.793 56.572-65.886 66.608-92.885h18.95a24 24 0 0 1 24 24v26.954c-22.628 7.307-49.151 21.794-81.968 52.272-64.6 59.991-75.646 125.751-83.6 148.955-3.907 11.4-13.258 26.807-22.29 35.612a66.109 66.109 0 0 1-46.584 18.678 73.352 73.352 0 0 1-56.55-26.958z" transform="translate(320 2102)"/>
        <path id="Shape-2" data-name="Shape" class="cls-1" d="M1032.025-1363.744c-13.15-16.064-8.612-38.115 5.452-50.056 5.238-4.454 14.819-9.31 20.644-10.724 20.457-4.945 41.372-12.2 64.622-32.535q2.143-1.875 4.117-3.732h20.013c-3.3 2.615-6.742 5.567-10.333 8.9-32.3 30-37.823 62.877-41.8 74.477a51.966 51.966 0 0 1-11.145 17.808 33.059 33.059 0 0 1-23.293 9.339 36.672 36.672 0 0 1-28.277-13.477z" transform="translate(320 2138.791)"/>
        <path id="Shape-3" data-name="Shape" class="cls-1" d="M1164.273-1308.931c-16.438-20.077-10.767-47.639 6.814-62.568 6.548-5.569 18.526-11.639 25.806-13.4 25.572-6.182 51.715-15.243 80.779-40.67q1.425-1.247 2.787-2.485v24.086c-27.73 32.858-33.485 65.391-37.794 77.958-2.443 7.13-8.287 16.758-13.931 22.258a41.318 41.318 0 0 1-29.117 11.676 45.837 45.837 0 0 1-35.344-16.855z" transform="translate(320 2253.893)"/>
    </g>
</svg>
